<?xml version="1.0" encoding="UTF-8" standalone="no"?>
<svg
   xmlns:dc="http://purl.org/dc/elements/1.1/"
   xmlns:cc="http://creativecommons.org/ns#"
   xmlns:rdf="http://www.w3.org/1999/02/22-rdf-syntax-ns#"
   xmlns:svg="http://www.w3.org/2000/svg"
   xmlns="http://www.w3.org/2000/svg"
   xmlns:sodipodi="http://sodipodi.sourceforge.net/DTD/sodipodi-0.dtd"
   xmlns:inkscape="http://www.inkscape.org/namespaces/inkscape"
   width="64"
   height="64"
   viewBox="-0.5 0.5 64 64"
   enable-background="new -0.5 0.5 64 64"
   version="1.1"
   id="svg3784"
   sodipodi:docname="Refresh_From_database.svg"
   inkscape:version="0.92.2 (5c3e80d, 2017-08-06)">
  <metadata
     id="metadata3790">
    <rdf:RDF>
      <cc:Work
         rdf:about="">
        <dc:format>image/svg+xml</dc:format>
        <dc:type
           rdf:resource="http://purl.org/dc/dcmitype/StillImage" />
        <dc:title></dc:title>
      </cc:Work>
    </rdf:RDF>
  </metadata>
  <defs
     id="defs3788">
    <clipPath
       clipPathUnits="userSpaceOnUse"
       id="clipPath3798">
      <path
         style="fill:none;stroke:#000000;stroke-width:1px;stroke-linecap:butt;stroke-linejoin:miter;stroke-opacity:1"
         d="M 23.471188,64.115846 V 38.30072 H 63.576831 V 0.65366146 H -0.34633854 V 64.5 Z"
         id="path3800"
         inkscape:connector-curvature="0" />
    </clipPath>
  </defs>
  <sodipodi:namedview
     pagecolor="#ffffff"
     bordercolor="#666666"
     borderopacity="1"
     objecttolerance="10"
     gridtolerance="10"
     guidetolerance="10"
     inkscape:pageopacity="0"
     inkscape:pageshadow="2"
     inkscape:window-width="1920"
     inkscape:window-height="1005"
     id="namedview3786"
     showgrid="false"
     inkscape:zoom="13.015625"
     inkscape:cx="33.464924"
     inkscape:cy="23.310739"
     inkscape:window-x="-9"
     inkscape:window-y="-9"
     inkscape:window-maximized="1"
     inkscape:current-layer="svg3784" />
  <g
     fill="#1a4888"
     id="g3776"
     clip-path="url(#clipPath3798)">
    <path
       d="m45.797,31.5c.023,.332 .051,.662 .051,.999 0,7.927-6.424,14.349-14.348,14.349-3.284,0-6.301-1.115-8.719-2.972l-5.005,5.813c3.763,3.008 8.531,4.811 13.724,4.811 12.151,0 22-9.85 22-22.001 0-.335-.012-.667-.025-.999h-7.678z"
       id="path3772" />
    <path
       d="m17.202,33.504c-.023-.333-.051-.666-.051-1.005 0-7.924 6.424-14.347 14.348-14.347 3.491,0 6.686,1.248 9.174,3.319l4.992-5.798c-3.827-3.226-8.769-5.173-14.165-5.173-12.15,0-22,9.85-22,21.999 0,.337 .01,.672 .025,1.005h7.677z"
       id="path3774" />
  </g>
  <g
     fill="#19478a"
     id="g3782">
    <path
       d="m58.5,33.5l-9.029-12-8.971,12h18z"
       id="path3778" />
    <path
       d="m22.5,31.5l-9.028,12-8.972-12h18z"
       id="path3780" />
  </g>
  <text
     xml:space="preserve"
     style="font-style:normal;font-weight:normal;font-size:40px;line-height:1.25;font-family:sans-serif;letter-spacing:0px;word-spacing:0px;fill:#000000;fill-opacity:1;stroke:none"
     x="23.394358"
     y="61.580433"
     id="text3794"><tspan
       sodipodi:role="line"
       id="tspan3792"
       x="23.394358"
       y="61.580433"
       style="font-style:normal;font-variant:normal;font-weight:normal;font-stretch:normal;font-size:29.33333397px;font-family:Georgia;-inkscape-font-specification:'Georgia, Normal';font-variant-ligatures:normal;font-variant-caps:normal;font-variant-numeric:normal;font-feature-settings:normal;text-align:start;writing-mode:lr-tb;text-anchor:start">DB</tspan></text>
</svg>
